<mxfile host="app.diagrams.net" agent="Mozilla/5.0 (Windows NT 10.0; Win64; x64) AppleWebKit/537.36 (KHTML, like Gecko) Chrome/135.0.0.0 Safari/537.36 Edg/135.0.0.0" version="26.2.13">
  <diagram name="第 1 页" id="hcM3pxMRn5J36v_k0EG8">
    <mxGraphModel dx="2060" dy="1146" grid="0" gridSize="10" guides="1" tooltips="1" connect="1" arrows="1" fold="1" page="1" pageScale="1" pageWidth="1654" pageHeight="1169" math="0" shadow="0">
      <root>
        <mxCell id="0" />
        <mxCell id="1" parent="0" />
        <mxCell id="WpFYKBySPFAZ0uOc6NMJ-3" value="传感器" style="rounded=0;whiteSpace=wrap;html=1;" vertex="1" parent="1">
          <mxGeometry x="16" y="244" width="83" height="437" as="geometry" />
        </mxCell>
        <mxCell id="WpFYKBySPFAZ0uOc6NMJ-4" value="环境感知" style="rounded=0;whiteSpace=wrap;html=1;" vertex="1" parent="1">
          <mxGeometry x="141" y="244" width="467" height="436" as="geometry" />
        </mxCell>
        <mxCell id="WpFYKBySPFAZ0uOc6NMJ-5" value="任务决策" style="rounded=0;whiteSpace=wrap;html=1;" vertex="1" parent="1">
          <mxGeometry x="668" y="244" width="405" height="449" as="geometry" />
        </mxCell>
        <mxCell id="WpFYKBySPFAZ0uOc6NMJ-6" value="路径规划" style="rounded=0;whiteSpace=wrap;html=1;" vertex="1" parent="1">
          <mxGeometry x="1108" y="244" width="351" height="509" as="geometry" />
        </mxCell>
        <mxCell id="WpFYKBySPFAZ0uOc6NMJ-7" value="执行控制" style="rounded=0;whiteSpace=wrap;html=1;" vertex="1" parent="1">
          <mxGeometry x="1485" y="244" width="149" height="677" as="geometry" />
        </mxCell>
        <mxCell id="WpFYKBySPFAZ0uOc6NMJ-8" value="SLAM" style="rounded=0;whiteSpace=wrap;html=1;" vertex="1" parent="1">
          <mxGeometry x="170" y="310" width="120" height="203" as="geometry" />
        </mxCell>
        <mxCell id="WpFYKBySPFAZ0uOc6NMJ-10" value="语义增强" style="rounded=0;whiteSpace=wrap;html=1;" vertex="1" parent="1">
          <mxGeometry x="178" y="587" width="120" height="60" as="geometry" />
        </mxCell>
        <mxCell id="WpFYKBySPFAZ0uOc6NMJ-11" value="几何栅格地图" style="rounded=0;whiteSpace=wrap;html=1;" vertex="1" parent="1">
          <mxGeometry x="307" y="310" width="120" height="60" as="geometry" />
        </mxCell>
        <mxCell id="WpFYKBySPFAZ0uOc6NMJ-12" value="语义向量" style="rounded=0;whiteSpace=wrap;html=1;" vertex="1" parent="1">
          <mxGeometry x="321" y="418" width="120" height="60" as="geometry" />
        </mxCell>
        <mxCell id="WpFYKBySPFAZ0uOc6NMJ-13" value="双模态地图融合" style="rounded=0;whiteSpace=wrap;html=1;" vertex="1" parent="1">
          <mxGeometry x="469" y="361" width="120" height="60" as="geometry" />
        </mxCell>
        <mxCell id="WpFYKBySPFAZ0uOc6NMJ-20" value="" style="rounded=0;whiteSpace=wrap;html=1;" vertex="1" parent="1">
          <mxGeometry x="706" y="266" width="173" height="210" as="geometry" />
        </mxCell>
        <mxCell id="WpFYKBySPFAZ0uOc6NMJ-14" value="结构重要性SSW" style="rounded=0;whiteSpace=wrap;html=1;" vertex="1" parent="1">
          <mxGeometry x="727" y="301" width="120" height="37" as="geometry" />
        </mxCell>
        <mxCell id="WpFYKBySPFAZ0uOc6NMJ-15" value="幸存者潜力USPM" style="rounded=0;whiteSpace=wrap;html=1;" vertex="1" parent="1">
          <mxGeometry x="727" y="360" width="120" height="37" as="geometry" />
        </mxCell>
        <mxCell id="WpFYKBySPFAZ0uOc6NMJ-16" value="风险指数RI" style="rounded=0;whiteSpace=wrap;html=1;" vertex="1" parent="1">
          <mxGeometry x="727" y="419" width="120" height="37" as="geometry" />
        </mxCell>
        <mxCell id="WpFYKBySPFAZ0uOc6NMJ-17" value="" style="rounded=0;whiteSpace=wrap;html=1;" vertex="1" parent="1">
          <mxGeometry x="706" y="500" width="173" height="166" as="geometry" />
        </mxCell>
        <mxCell id="WpFYKBySPFAZ0uOc6NMJ-18" value="任务目标生成探索/搜救优先级" style="rounded=0;whiteSpace=wrap;html=1;" vertex="1" parent="1">
          <mxGeometry x="919" y="266" width="120" height="400" as="geometry" />
        </mxCell>
        <mxCell id="WpFYKBySPFAZ0uOc6NMJ-21" value="探索阶段" style="rounded=0;whiteSpace=wrap;html=1;" vertex="1" parent="1">
          <mxGeometry x="729" y="550" width="120" height="37" as="geometry" />
        </mxCell>
        <mxCell id="WpFYKBySPFAZ0uOc6NMJ-22" value="搜救阶段" style="rounded=0;whiteSpace=wrap;html=1;" vertex="1" parent="1">
          <mxGeometry x="729" y="608" width="120" height="37" as="geometry" />
        </mxCell>
        <mxCell id="WpFYKBySPFAZ0uOc6NMJ-23" value="" style="rounded=0;whiteSpace=wrap;html=1;" vertex="1" parent="1">
          <mxGeometry x="1124" y="270" width="133" height="223" as="geometry" />
        </mxCell>
        <mxCell id="WpFYKBySPFAZ0uOc6NMJ-24" value="几何编码器（CNN）" style="rounded=0;whiteSpace=wrap;html=1;" vertex="1" parent="1">
          <mxGeometry x="1281" y="270" width="72" height="221" as="geometry" />
        </mxCell>
        <mxCell id="WpFYKBySPFAZ0uOc6NMJ-25" value="语义编码器（Transformer）" style="rounded=0;whiteSpace=wrap;html=1;" vertex="1" parent="1">
          <mxGeometry x="1281" y="516" width="73" height="217" as="geometry" />
        </mxCell>
        <mxCell id="WpFYKBySPFAZ0uOc6NMJ-26" value="显示安全约束" style="rounded=0;whiteSpace=wrap;html=1;" vertex="1" parent="1">
          <mxGeometry x="12" y="783" width="1454" height="139" as="geometry" />
        </mxCell>
        <mxCell id="WpFYKBySPFAZ0uOc6NMJ-27" value="RGB" style="rounded=0;whiteSpace=wrap;html=1;" vertex="1" parent="1">
          <mxGeometry x="25" y="280" width="63" height="60" as="geometry" />
        </mxCell>
        <mxCell id="WpFYKBySPFAZ0uOc6NMJ-29" value="深度图" style="rounded=0;whiteSpace=wrap;html=1;" vertex="1" parent="1">
          <mxGeometry x="25" y="358" width="63" height="60" as="geometry" />
        </mxCell>
        <mxCell id="WpFYKBySPFAZ0uOc6NMJ-30" value="生成规避动作" style="rounded=0;whiteSpace=wrap;html=1;" vertex="1" parent="1">
          <mxGeometry x="910" y="804" width="144" height="62" as="geometry" />
        </mxCell>
        <mxCell id="WpFYKBySPFAZ0uOc6NMJ-32" value="语义风险地图校准" style="rounded=0;whiteSpace=wrap;html=1;" vertex="1" parent="1">
          <mxGeometry x="1099" y="801" width="144" height="62" as="geometry" />
        </mxCell>
        <mxCell id="WpFYKBySPFAZ0uOc6NMJ-34" value="几何特征" style="rounded=0;whiteSpace=wrap;html=1;" vertex="1" parent="1">
          <mxGeometry x="1146" y="287" width="90" height="37" as="geometry" />
        </mxCell>
        <mxCell id="WpFYKBySPFAZ0uOc6NMJ-36" value="语义向量" style="rounded=0;whiteSpace=wrap;html=1;" vertex="1" parent="1">
          <mxGeometry x="1146" y="338" width="90" height="37" as="geometry" />
        </mxCell>
        <mxCell id="WpFYKBySPFAZ0uOc6NMJ-37" value="价值评分" style="rounded=0;whiteSpace=wrap;html=1;" vertex="1" parent="1">
          <mxGeometry x="1146" y="390" width="90" height="37" as="geometry" />
        </mxCell>
        <mxCell id="WpFYKBySPFAZ0uOc6NMJ-38" value="机器人状态" style="rounded=0;whiteSpace=wrap;html=1;" vertex="1" parent="1">
          <mxGeometry x="1146" y="441.5" width="90" height="37" as="geometry" />
        </mxCell>
        <mxCell id="WpFYKBySPFAZ0uOc6NMJ-39" value="" style="rounded=0;whiteSpace=wrap;html=1;" vertex="1" parent="1">
          <mxGeometry x="1124.5" y="512" width="133" height="223" as="geometry" />
        </mxCell>
        <mxCell id="WpFYKBySPFAZ0uOc6NMJ-40" value="结构探索奖励" style="rounded=0;whiteSpace=wrap;html=1;" vertex="1" parent="1">
          <mxGeometry x="1146.5" y="529" width="90" height="37" as="geometry" />
        </mxCell>
        <mxCell id="WpFYKBySPFAZ0uOc6NMJ-41" value="目标接近奖励" style="rounded=0;whiteSpace=wrap;html=1;" vertex="1" parent="1">
          <mxGeometry x="1146.5" y="580" width="90" height="37" as="geometry" />
        </mxCell>
        <mxCell id="WpFYKBySPFAZ0uOc6NMJ-42" value="风险惩罚" style="rounded=0;whiteSpace=wrap;html=1;" vertex="1" parent="1">
          <mxGeometry x="1146.5" y="632" width="90" height="37" as="geometry" />
        </mxCell>
        <mxCell id="WpFYKBySPFAZ0uOc6NMJ-43" value="安全奖励" style="rounded=0;whiteSpace=wrap;html=1;" vertex="1" parent="1">
          <mxGeometry x="1146.5" y="683.5" width="90" height="37" as="geometry" />
        </mxCell>
        <mxCell id="WpFYKBySPFAZ0uOc6NMJ-44" value="特征融合" style="rounded=0;whiteSpace=wrap;html=1;" vertex="1" parent="1">
          <mxGeometry x="1379" y="270" width="64" height="463" as="geometry" />
        </mxCell>
      </root>
    </mxGraphModel>
  </diagram>
</mxfile>
